<?xml version="1.0" encoding="UTF-8"?> <svg xmlns="http://www.w3.org/2000/svg" id="Logo" viewBox="0 0 905.03 241.75"><defs><style>.cls-1{fill:#ff5252;}.cls-2{fill:#ff9797;}.cls-3{fill:#ffbaba;}.cls-4{fill:#1e1e1e;}.cls-5{fill:#e6e6e6;}</style></defs><polygon class="cls-1" points="333.61 159.52 400.09 100.72 328.51 100.72 287.87 100.71 267.29 146.33 252.38 159.52 277.96 159.52 302.16 154.04 333.61 159.52"></polygon><polygon class="cls-2" points="333.61 159.52 343.98 100.71 277.5 159.52 333.61 159.52"></polygon><polygon class="cls-3" points="232 100.72 287.87 100.71 277.5 159.52 232 100.72"></polygon><polygon class="cls-1" points="301.86 21.39 289.65 90.6 328.69 56.07 301.86 21.39"></polygon><polygon class="cls-2" points="346.27 0 330.29 90.6 381.39 45.39 346.27 0"></polygon><path class="cls-4" d="M504.26,159.52l13.73-78h19.88l-13.73,78Z"></path><path class="cls-4" d="M586.09,102.41h19.44l-10.11,57.11H576.64l.55-5.82a23.22,23.22,0,0,1-17.68,7.47c-7.58,0-13.51-2.31-17.8-7s-6.37-10.77-6.37-18.34a35.7,35.7,0,0,1,9.23-24.61,29.46,29.46,0,0,1,22.95-10.32c9.45,0,17.47,6.81,17.47,6.81Zm-9.12,37a15.35,15.35,0,0,0,4.28-10.76c0-6.48-4.28-10.66-11-10.66a14.48,14.48,0,0,0-11.09,4.62,14.92,14.92,0,0,0-4.29,10.65c0,6.59,4.18,10.65,11.1,10.65A14.38,14.38,0,0,0,577,139.42Z"></path><path class="cls-4" d="M607.18,172l2.63-13.62c3.19,2.31,11.1,4.18,19.11,4.18,11.32,0,17.69-3.52,18.9-10.44l.1-1,.88-2.3c-4.06,5.16-10.32,7.79-19,7.79-14.61,0-22.95-8.34-22.95-22.51a33.71,33.71,0,0,1,8.89-23.51c5.93-6.48,13.51-9.77,22.85-9.77,8.9,0,16.25,7,16.25,7l1.65-5.49h19.22l-8.67,49c-1.87,10.66-7.58,18.24-15.16,21.64a48.42,48.42,0,0,1-22,4.72C619.7,177.75,610.8,175.45,607.18,172Zm44.26-44.92c0-6.15-3.62-10-10.22-10a14.06,14.06,0,0,0-10.43,4.18,13.73,13.73,0,0,0-3.95,9.88c0,6.15,3.73,10,10.43,10C645.73,141.18,651.44,135,651.44,127.12Z"></path><path class="cls-4" d="M674.94,141.73H692.4c.44,3.62,3.63,4.72,10.22,4.72q10.21,0,10.21-4.28c0-2-1.65-3.19-5.05-3.52l-10.88-1.1C684.71,136.35,679,132,679,122c0-14.17,10.54-21.2,31.52-21.2,17.14,0,25.7,5,24.39,19.11H717.55c-.44-3.51-3.07-4.72-9.11-4.72s-9.23,1.42-9.23,4.39c0,2.09,1.54,3.19,4.72,3.51l10.88,1.1c12.85,1.32,18.67,4.84,18.67,14.83,0,14.83-12.63,22.19-33.72,22.19C682.08,161.17,673.51,156.12,674.94,141.73Z"></path><path class="cls-4" d="M805.6,128.11l-5.49,31.41H780.23l5.16-29c1.43-8.23-1.65-12.41-9.22-12.41S763.86,122,762,129.65l-5.27,29.87h-20l13.72-78h19.88l-4.72,28s2.86-2.42,6.37-5,8.35-3.84,14.17-3.84C802.31,100.76,808.57,111.08,805.6,128.11Z"></path><path class="cls-4" d="M807.5,159.52l10.1-57.11h19.88l-10.1,57.11Zm12.41-73.81c0-5.38,4.17-9.55,10.44-9.55,6.48,0,10.43,4.17,10.43,9.55s-3.95,9.56-10.43,9.56C824.08,95.27,819.91,91.09,819.91,85.71Z"></path><path class="cls-4" d="M832,175.34l12.85-72.93h19.88l-.66,4.5s9.34-6,18.67-6c14.17,0,22.3,10.32,22.3,25.37,0,9.78-3.07,18-9.12,24.82a29.31,29.31,0,0,1-22.62,10.11c-8.35,0-14.17-3-17.47-8.79l-4.06,23Zm49.21-35.81a15.32,15.32,0,0,0,4.17-10.65c0-6.7-4.17-10.88-11.2-10.88a14.57,14.57,0,0,0-11,4.51A15.06,15.06,0,0,0,859,133.05c0,6.7,4.17,10.87,11.2,10.87C874.72,143.92,878.45,142.5,881.2,139.53Z"></path><polygon class="cls-4" points="507.29 100.65 510.48 82.64 444.13 82.64 437.82 118.31 424.61 118.31 421.55 135.69 445.03 135.69 445.03 135.69 455.12 135.69 432.99 145.54 430.51 159.52 450.94 159.52 455.12 135.69 499.49 135.69 502.46 118.33 458.19 118.33 461.38 100.65 507.29 100.65"></polygon><polygon class="cls-5" points="232 159.52 0 159.52 0 146.33 246.91 146.33 232 159.52"></polygon><path class="cls-4" d="M448.25,224.59c0,6-4.87,9.55-12.47,9.55H417.37l5.75-32.46h17.29c6.45,0,9.69,2.55,9.69,7.65q0,6.19-6.53,8.49C446.67,218.88,448.25,221.16,448.25,224.59Zm-12.71,5.19c4.87,0,7.84-2.23,7.84-6,0-2.83-1.76-4.13-5.8-4.13H425l-1.76,10.11ZM427.38,206l-1.71,9.69h11.78c4.77,0,7.55-2,7.55-5.66,0-2.82-1.71-4-5.56-4Z"></path><path class="cls-4" d="M455.21,240.82l4.31-6.87L452.66,210h5.1l5.06,18.59H463L474.55,210h5.19l-19.43,30.79Z"></path><polygon class="cls-4" points="597.24 201.68 566.76 201.68 565.83 206.97 578.06 206.97 573.27 234.18 579.23 234.18 584.06 206.97 596.3 206.97 597.24 201.68"></polygon><path class="cls-4" d="M610.3,213.82q-2.65-4.48-8.43-4.48a13.23,13.23,0,0,0-10,4.36,14.89,14.89,0,0,0-4.05,10.45,11.15,11.15,0,0,0,2.75,7.8,9.91,9.91,0,0,0,7.62,2.92,11.5,11.5,0,0,0,9.26-4.27l-.46,3.56h5.55L616.76,210H611Zm-3.87,13.3a8.67,8.67,0,0,1-6.51,2.64c-4,0-6.37-2.36-6.37-6.31a8.81,8.81,0,0,1,2.51-6.36,8.67,8.67,0,0,1,6.51-2.64c4.1,0,6.47,2.46,6.47,6.31A8.83,8.83,0,0,1,606.43,227.12Z"></path><path class="cls-4" d="M631.85,213.7c3.93,0,5.43,1,5.49,3.17v.28l5.12-2.27c-.49-3.94-4.15-5.54-10.14-5.54-7.82,0-12.66,2.74-12.66,8.45,0,3.9,2.38,5.8,7.4,6.22l5.07.46c2.37.19,3.39.84,3.39,2.46,0,2.37-2.23,3.53-6.74,3.53-4,0-5.72-.93-5.86-3.16v-.23s-5.14,2.26-5.14,2.28c.45,4,4.22,5.52,10.22,5.52,8.37,0,13.58-2.78,13.58-8.73,0-3.89-2.23-5.52-7.44-6l-5.07-.46c-2.33-.19-3.49-1-3.49-2.56C625.57,214.82,627.66,213.7,631.85,213.7Z"></path><path class="cls-4" d="M552.71,215.9a5,5,0,0,0,.91-1,10,10,0,0,0,2-4.16,7.62,7.62,0,0,0-1.94-6.75c-1.57-1.65-3.68-2.35-7-2.35H533l-2.16,12.18h-5.93l1.58,6.32h3.24l-2.47,14h15.85c3.82,0,6.66-.93,9-2.94a11.65,11.65,0,0,0,3.86-7.08,8.32,8.32,0,0,0-2.15-7.36A4.52,4.52,0,0,0,552.71,215.9Zm-13-7.9h5.22c1.85,0,2.45.45,2.83.94a2.49,2.49,0,0,1,.42,1.91,3.65,3.65,0,0,1-1.16,2,4.36,4.36,0,0,1-3.29,1h-5.06Zm8.79,15.93a4.58,4.58,0,0,1-1.5,2.64,5.51,5.51,0,0,1-4,1.28h-6.79l1.11-6.27h0l.25-1.4h6.94c2.32,0,3.09.69,3.46,1.21h0A3.16,3.16,0,0,1,548.48,223.93Z"></path><path class="cls-4" d="M509.49,201.68l-21.95,32.48h8.75l5.18-7.67h12.82l1.92,7.67h8.69l-8.12-32.48Zm-3.75,18.5,5.09-7.53,1.88,7.53Z"></path><path class="cls-4" d="M685.37,210,673.9,228.27,669,210H656.74l1.23-6.95-6.3,2.8-.73,4.15h-4.61l-.93,5h4.66l-1.84,10.44c-1,5.52,1.61,9.42,7.94,9.42h4.93l-1.49-5.32h-1.74c-3.27,0-4.32-1.37-3.76-4.56s1.76-10,1.76-10h8.63l5.33,19.86-4.31,6.88h6.16l19.85-31.7Z"></path></svg> 